<svg width="32" height="32" viewBox="0 0 32 32" fill="none" xmlns="http://www.w3.org/2000/svg">
<path d="M31.5703 2.88089H25.6522L18.356 0.500459C17.9178 0.357096 17.4532 0.313213 16.996 0.372001C16.5388 0.43079 16.1004 0.590772 15.7128 0.840306L11.3165 3.66463C11.269 3.69506 11.2281 3.73453 11.1959 3.78079C11.1637 3.82705 11.141 3.87919 11.1289 3.93424C11.1169 3.9893 11.1158 4.04618 11.1258 4.10164C11.1358 4.1571 11.1565 4.21006 11.187 4.2575C11.2174 4.30493 11.2569 4.3459 11.3031 4.37808C11.3494 4.41026 11.4015 4.43301 11.4566 4.44503C11.5116 4.45706 11.5685 4.45812 11.624 4.44816C11.6794 4.43821 11.7324 4.41742 11.7798 4.387L16.1761 1.56641C16.4569 1.38611 16.7744 1.27077 17.1054 1.22881C17.4364 1.18685 17.7726 1.21933 18.0895 1.32388L25.4531 3.71928C25.4958 3.73333 25.5406 3.74041 25.5856 3.74024H31.1421V10.9496H27.9495C27.8709 10.9497 27.7937 10.9714 27.7265 11.0123C27.6594 11.0533 27.6047 11.1118 27.5685 11.1817C27.0876 11.9951 26.3532 12.6284 25.4778 12.9842V11.0552C26.1657 10.7618 26.9 10.2512 27.3686 9.3612C27.395 9.31126 27.4113 9.25661 27.4166 9.20037C27.4219 9.14414 27.416 9.08741 27.3994 9.03344C27.3827 8.97946 27.3556 8.92929 27.3196 8.8858C27.2836 8.8423 27.2393 8.80633 27.1894 8.77994C27.1394 8.75354 27.0848 8.73724 27.0285 8.73197C26.9723 8.72669 26.9156 8.73255 26.8616 8.74919C26.8076 8.76584 26.7575 8.79296 26.714 8.82899C26.6705 8.86503 26.6345 8.90928 26.6081 8.95922C25.7922 10.5192 23.7636 10.5888 23.7523 10.5888C21.0351 10.5888 20.2506 8.69198 20.2191 8.61338C20.188 8.5324 20.1331 8.46274 20.0616 8.41357C19.9901 8.3644 19.9054 8.33803 19.8186 8.33791H15.7861C15.6332 8.34182 15.4811 8.31508 15.3387 8.25926C15.1962 8.20344 15.0664 8.11968 14.9569 8.0129C14.8474 7.90613 14.7603 7.77851 14.7009 7.63757C14.6414 7.49662 14.6108 7.3452 14.6108 7.19223C14.6108 7.03927 14.6414 6.88785 14.7009 6.7469C14.7603 6.60596 14.8474 6.47834 14.9569 6.37157C15.0664 6.26479 15.1962 6.18103 15.3387 6.12521C15.4811 6.06939 15.6332 6.04265 15.7861 6.04656H20.5994C20.6573 6.04898 20.7151 6.03966 20.7692 6.01918C20.8234 5.99869 20.8729 5.96746 20.9147 5.92736C20.9566 5.88726 20.9898 5.83911 21.0126 5.78582C21.0353 5.73253 21.047 5.67519 21.047 5.61726C21.047 5.55932 21.0353 5.50199 21.0126 5.4487C20.9898 5.39541 20.9566 5.34726 20.9147 5.30716C20.8729 5.26706 20.8234 5.23582 20.7692 5.21534C20.7151 5.19485 20.6573 5.18554 20.5994 5.18796H15.7861C15.5197 5.18281 15.2549 5.23084 15.0072 5.32926C14.7595 5.42767 14.5339 5.57448 14.3437 5.7611C14.1534 5.94773 14.0023 6.17042 13.8991 6.41615C13.7959 6.66188 13.7428 6.92572 13.7428 7.19223C13.7428 7.45875 13.7959 7.72259 13.8991 7.96832C14.0023 8.21405 14.1534 8.43674 14.3437 8.62337C14.5339 8.80999 14.7595 8.9568 15.0072 9.05522C15.2549 9.15363 15.5197 9.20166 15.7861 9.19651H19.5499C19.9085 9.8545 21.0568 11.4474 23.7613 11.4474C24.0504 11.4346 24.3376 11.3948 24.6192 11.3284V17.6912C24.619 17.8591 24.5522 18.0201 24.4335 18.1388C24.3148 18.2575 24.1538 18.3243 23.9859 18.3245H1.83368C1.66597 18.3243 1.50516 18.2577 1.38636 18.1394C1.26757 18.021 1.20044 17.8604 1.19965 17.6927V6.67984C1.19985 6.51195 1.26663 6.35098 1.38535 6.23226C1.50407 6.11354 1.66504 6.04676 1.83293 6.04656H12.7792C12.837 6.04898 12.8948 6.03966 12.949 6.01918C13.0032 5.99869 13.0527 5.96746 13.0945 5.92736C13.1363 5.88726 13.1696 5.83911 13.1923 5.78582C13.2151 5.73253 13.2268 5.67519 13.2268 5.61726C13.2268 5.55932 13.2151 5.50199 13.1923 5.4487C13.1696 5.39541 13.1363 5.34726 13.0945 5.30716C13.0527 5.26706 13.0032 5.23582 12.949 5.21534C12.8948 5.19485 12.837 5.18554 12.7792 5.18796H1.83368C1.43843 5.18934 1.05977 5.34696 0.780286 5.62645C0.500802 5.90593 0.343178 6.2846 0.341797 6.67984V17.6927C0.343178 18.0879 0.500802 18.4666 0.780286 18.7461C1.05977 19.0256 1.43843 19.1832 1.83368 19.1846H23.9859C24.3811 19.1832 24.7598 19.0256 25.0393 18.7461C25.3188 18.4666 25.4764 18.0879 25.4778 17.6927V13.8937C27.0168 13.4034 27.8784 12.2933 28.1928 11.8075H31.5703C31.6842 11.8075 31.7933 11.7623 31.8739 11.6819C31.9544 11.6015 31.9998 11.4924 32 11.3786V3.31056C32 3.19661 31.9547 3.08732 31.8742 3.00674C31.7936 2.92616 31.6843 2.88089 31.5703 2.88089V2.88089Z" fill="black"/>
<path d="M3.25209 14.4472V9.92211C3.70372 9.83531 4.11894 9.61509 4.44413 9.2899C4.76932 8.96471 4.98954 8.54948 5.07634 8.09786H12.407C12.5178 8.09323 12.6224 8.04598 12.6992 7.96598C12.7759 7.88597 12.8188 7.77941 12.8188 7.66856C12.8188 7.55771 12.7759 7.45114 12.6992 7.37114C12.6224 7.29114 12.5178 7.24388 12.407 7.23926H4.68783C4.57388 7.23926 4.46459 7.28453 4.38401 7.36511C4.30343 7.44569 4.25816 7.55498 4.25816 7.66893C4.25845 7.85764 4.22157 8.04455 4.1496 8.219C4.07764 8.39344 3.97201 8.552 3.83874 8.68561C3.70548 8.81922 3.5472 8.92526 3.37295 8.99768C3.19869 9.0701 3.01187 9.10747 2.82316 9.10767C2.71037 9.10845 2.60241 9.15355 2.52258 9.23324C2.44276 9.31293 2.39746 9.42081 2.39648 9.5336V14.8364C2.39648 14.8928 2.4076 14.9486 2.42921 15.0007C2.45081 15.0528 2.48247 15.1001 2.52238 15.14C2.56229 15.1798 2.60966 15.2114 2.66179 15.2329C2.71391 15.2544 2.76977 15.2654 2.82616 15.2653C3.20669 15.2659 3.57146 15.4174 3.84046 15.6866C4.10947 15.9557 4.26076 16.3206 4.26115 16.7011C4.26115 16.7575 4.27227 16.8133 4.29387 16.8654C4.31548 16.9175 4.34714 16.9648 4.38705 17.0046C4.42696 17.0445 4.47433 17.0761 4.52646 17.0976C4.57858 17.1191 4.63444 17.1301 4.69083 17.13H21.13C21.1864 17.1301 21.2423 17.1191 21.2944 17.0976C21.3465 17.0761 21.3939 17.0445 21.4338 17.0046C21.4737 16.9648 21.5054 16.9175 21.527 16.8654C21.5486 16.8133 21.5597 16.7575 21.5597 16.7011C21.5601 16.3206 21.7114 15.9557 21.9804 15.6866C22.2494 15.4174 22.6141 15.2659 22.9947 15.2653C23.0511 15.2654 23.1069 15.2544 23.1591 15.2329C23.2112 15.2114 23.2586 15.1798 23.2985 15.14C23.3384 15.1001 23.37 15.0528 23.3916 15.0007C23.4132 14.9486 23.4244 14.8928 23.4244 14.8364V12.8961C23.4268 12.8383 23.4175 12.7805 23.397 12.7263C23.3765 12.6721 23.3453 12.6226 23.3052 12.5808C23.2651 12.539 23.2169 12.5057 23.1636 12.483C23.1103 12.4603 23.053 12.4485 22.9951 12.4485C22.9371 12.4485 22.8798 12.4603 22.8265 12.483C22.7732 12.5057 22.7251 12.539 22.685 12.5808C22.6448 12.6226 22.6136 12.6721 22.5931 12.7263C22.5726 12.7805 22.5633 12.8383 22.5658 12.8961V14.4472C22.1142 14.5342 21.6991 14.7544 21.3739 15.0796C21.0488 15.4047 20.8285 15.8199 20.7415 16.2714H5.07634C4.98935 15.8199 4.76907 15.4047 4.44391 15.0796C4.11875 14.7544 3.70363 14.5342 3.25209 14.4472V14.4472Z" fill="#FBD846"/>
<path d="M12.3427 10.7738H13.3758C13.4865 10.7692 13.5912 10.722 13.6679 10.642C13.7447 10.5619 13.7875 10.4554 13.7875 10.3445C13.7875 10.2337 13.7447 10.1271 13.6679 10.0471C13.5912 9.96711 13.4865 9.91986 13.3758 9.91523H13.0382V9.63901C13.0406 9.58113 13.0313 9.52335 13.0108 9.46916C12.9903 9.41497 12.9591 9.36547 12.919 9.32366C12.8788 9.28185 12.8307 9.24858 12.7774 9.22585C12.7241 9.20312 12.6668 9.19141 12.6089 9.19141C12.5509 9.19141 12.4936 9.20312 12.4403 9.22585C12.387 9.24858 12.3389 9.28185 12.2988 9.32366C12.2586 9.36547 12.2274 9.41497 12.2069 9.46916C12.1864 9.52335 12.1771 9.58113 12.1796 9.63901V9.92571C11.8266 9.95236 11.4984 10.1168 11.2657 10.3835C11.033 10.6501 10.9146 10.9976 10.9361 11.3509C10.9575 11.7042 11.1171 12.0348 11.3803 12.2714C11.6435 12.508 11.9892 12.6315 12.3427 12.6153H12.8742C13.0049 12.6153 13.1301 12.6672 13.2225 12.7596C13.3149 12.8519 13.3668 12.9772 13.3668 13.1079C13.3668 13.2385 13.3149 13.3638 13.2225 13.4561C13.1301 13.5485 13.0049 13.6004 12.8742 13.6004H11.8427C11.7848 13.598 11.727 13.6073 11.6728 13.6278C11.6187 13.6483 11.5692 13.6795 11.5273 13.7196C11.4855 13.7597 11.4523 13.8079 11.4295 13.8611C11.4068 13.9144 11.3951 13.9718 11.3951 14.0297C11.3951 14.0876 11.4068 14.145 11.4295 14.1983C11.4523 14.2516 11.4855 14.2997 11.5273 14.3398C11.5692 14.3799 11.6187 14.4111 11.6728 14.4316C11.727 14.4521 11.7848 14.4614 11.8427 14.459H12.1796V14.7352C12.1842 14.846 12.2314 14.9507 12.3114 15.0274C12.3914 15.1041 12.498 15.147 12.6089 15.147C12.7197 15.147 12.8263 15.1041 12.9063 15.0274C12.9863 14.9507 13.0335 14.846 13.0382 14.7352V14.4463C13.3914 14.4199 13.72 14.2556 13.9529 13.9888C14.1859 13.722 14.3044 13.3742 14.2828 13.0206C14.2613 12.6671 14.1014 12.3363 13.8378 12.0997C13.5742 11.8632 13.228 11.7399 12.8742 11.7567H12.3427C12.2766 11.7593 12.2106 11.7485 12.1487 11.7249C12.0868 11.7014 12.0304 11.6656 11.9826 11.6197C11.9349 11.5739 11.897 11.5188 11.871 11.4579C11.8451 11.397 11.8317 11.3315 11.8317 11.2653C11.8317 11.1991 11.8451 11.1335 11.871 11.0726C11.897 11.0117 11.9349 10.9567 11.9826 10.9108C12.0304 10.8649 12.0868 10.8291 12.1487 10.8056C12.2106 10.782 12.2766 10.7713 12.3427 10.7738Z" fill="#FBD846"/>
<path d="M7.87771 11.8831C7.79837 11.9627 7.75325 12.0701 7.75195 12.1825C7.7519 12.211 7.75491 12.2393 7.76094 12.2671C7.7662 12.2944 7.77448 12.321 7.78564 12.3465C7.79591 12.3729 7.80922 12.398 7.82531 12.4213C7.84046 12.4446 7.85803 12.4661 7.87771 12.4857C7.89766 12.5057 7.91947 12.5237 7.94284 12.5396C7.96648 12.5549 7.99155 12.568 8.01769 12.5785C8.04385 12.5893 8.0709 12.5979 8.09854 12.604C8.12619 12.6091 8.15426 12.6116 8.18238 12.6114C8.29605 12.6111 8.40498 12.5659 8.48555 12.4857C8.50548 12.466 8.52353 12.4444 8.53944 12.4213C8.55442 12.3973 8.56768 12.3723 8.57912 12.3465C8.58901 12.3206 8.59702 12.2941 8.60307 12.2671C8.60885 12.2393 8.61161 12.2109 8.6113 12.1825C8.61067 12.0979 8.585 12.0153 8.53755 11.9453C8.49009 11.8752 8.42297 11.8207 8.34462 11.7887C8.26628 11.7567 8.18021 11.7486 8.09726 11.7654C8.01431 11.7822 7.93818 11.8231 7.87846 11.8831H7.87771Z" fill="#FBD846"/>
<path d="M17.2793 12.4242C17.2954 12.4471 17.3134 12.4687 17.3332 12.4885C17.3778 12.5336 17.432 12.5681 17.4917 12.5896C17.5513 12.6112 17.6151 12.6191 17.6782 12.613C17.7413 12.6068 17.8023 12.5867 17.8567 12.554C17.9111 12.5214 17.9575 12.477 17.9926 12.4242C18.0087 12.4008 18.022 12.3757 18.0323 12.3493C18.0435 12.3239 18.0518 12.2972 18.057 12.27C18.063 12.2427 18.066 12.2148 18.066 12.1869C18.0684 12.129 18.0591 12.0712 18.0386 12.017C18.0181 11.9628 17.9869 11.9133 17.9468 11.8715C17.9067 11.8297 17.8586 11.7964 17.8053 11.7737C17.752 11.751 17.6946 11.7393 17.6367 11.7393C17.5788 11.7393 17.5214 11.751 17.4681 11.7737C17.4149 11.7964 17.3667 11.8297 17.3266 11.8715C17.2865 11.9133 17.2553 11.9628 17.2348 12.017C17.2143 12.0712 17.205 12.129 17.2074 12.1869C17.2076 12.2148 17.2103 12.2426 17.2156 12.27C17.2216 12.2971 17.2299 12.3236 17.2403 12.3493C17.2512 12.3753 17.2643 12.4003 17.2793 12.4242Z" fill="#FBD846"/>
<path d="M28.11 18.9281C27.7092 18.6131 27.2049 18.4601 26.6967 18.4992C26.1886 18.5383 25.7136 18.7666 25.3657 19.1391L22.6507 22.0743C22.6097 22.1151 22.5774 22.1639 22.5558 22.2175C22.5341 22.2712 22.5235 22.3287 22.5246 22.3865C22.5257 22.4444 22.5385 22.5014 22.5621 22.5542C22.5858 22.607 22.6199 22.6545 22.6624 22.6938C22.7049 22.7331 22.7548 22.7634 22.8093 22.7829C22.8638 22.8024 22.9217 22.8107 22.9794 22.8073C23.0372 22.8039 23.0937 22.7889 23.1455 22.7631C23.1973 22.7374 23.2434 22.7014 23.281 22.6574L25.996 19.7223C26.1963 19.5076 26.4698 19.3761 26.7625 19.3536C27.0552 19.3311 27.3456 19.4194 27.5762 19.601C27.6972 19.6971 27.7979 19.8162 27.8724 19.9515C27.9469 20.0868 27.9938 20.2356 28.0103 20.3892C28.0268 20.5428 28.0126 20.6981 27.9685 20.8461C27.9245 20.9942 27.8514 21.132 27.7536 21.2516L23.0272 27.032C22.684 27.453 22.195 27.7295 21.6573 27.8068L12.5084 29.131C12.0437 29.1996 11.6009 29.3742 11.2145 29.6413C10.8281 29.9085 10.5083 30.261 10.2799 30.6715L10.0299 31.1206H1.61384L5.97346 24.6778C6.59731 23.7489 7.46339 23.0083 8.47793 22.5363C9.49247 22.0644 10.6168 21.8789 11.7292 22.0002C12.4669 22.0767 13.1934 22.2372 13.8948 22.4785C14.3712 22.6488 14.8732 22.7369 15.3792 22.739H19.7545C20.0899 22.7394 20.4114 22.8728 20.6486 23.11C20.8858 23.3471 21.0192 23.6687 21.0196 24.0041C21.0192 24.3661 20.8752 24.7131 20.6192 24.9691C20.3633 25.2251 20.0162 25.369 19.6542 25.3694H15.6456C14.9895 25.3693 14.354 25.5986 13.8491 26.0177L12.9074 26.7992C12.8232 26.873 12.7711 26.9767 12.7622 27.0884C12.7533 27.2 12.7884 27.3107 12.8599 27.3968C12.9314 27.483 13.0338 27.5378 13.1451 27.5497C13.2565 27.5615 13.3681 27.5294 13.4561 27.4602L14.397 26.6787C14.7468 26.3887 15.1868 26.2299 15.6411 26.2295H19.6527C20.2423 26.2287 20.8075 25.9942 21.2244 25.5773C21.6413 25.1604 21.8759 24.5951 21.8767 24.0056C21.8759 23.4426 21.6519 22.9029 21.2538 22.5048C20.8557 22.1067 20.316 21.8827 19.753 21.8819H15.3792C14.9708 21.8797 14.5658 21.808 14.1815 21.67C13.4183 21.4061 12.6274 21.2303 11.8242 21.146C10.5564 21.0072 9.27475 21.218 8.11809 21.7554C6.96144 22.2928 5.97386 23.1365 5.26233 24.1949L0.449074 31.3063C0.404479 31.3709 0.378445 31.4465 0.3738 31.5249C0.369154 31.6033 0.386075 31.6814 0.422724 31.7509C0.459373 31.8203 0.514349 31.8784 0.58168 31.9188C0.649011 31.9592 0.726124 31.9803 0.804641 31.98H10.2829C10.3597 31.9795 10.4349 31.9584 10.5008 31.9189C10.5666 31.8794 10.6206 31.8229 10.6572 31.7554L11.0315 31.0817C11.1957 30.7869 11.4255 30.5338 11.7031 30.3419C11.9808 30.1501 12.2988 30.0246 12.6327 29.9753L21.7839 28.6564C22.5341 28.5485 23.2165 28.1627 23.6957 27.5754L28.4221 21.795C28.5924 21.5875 28.7196 21.3482 28.7964 21.0909C28.8731 20.8337 28.8978 20.5638 28.8691 20.2969C28.8404 20.03 28.7588 19.7715 28.6291 19.5365C28.4994 19.3014 28.3242 19.0946 28.1137 18.9281H28.11Z" fill="black"/>
</svg>
