<svg width="32" height="33" viewBox="0 0 32 33" fill="none" xmlns="http://www.w3.org/2000/svg">
<path d="M31.2157 30.8225C27.9721 30.8225 24.72 30.8225 21.4764 30.8225C16.0879 30.8225 10.6993 30.8225 5.31073 30.8225C3.75383 30.8225 2.20559 30.8225 0.648704 30.8225C0.864939 30.9925 1.08117 31.1626 1.29741 31.3327C1.29741 29.1556 1.29741 26.9785 1.29741 24.8014C1.29741 20.4473 1.29741 16.0931 1.29741 11.7389C1.29741 8.48005 1.29741 5.22121 1.29741 1.96918C1.29741 1.69024 1.29741 1.4181 1.29741 1.13916C1.08117 1.30925 0.864939 1.47933 0.648704 1.64942C3.89223 1.64942 7.1444 1.64942 10.3879 1.64942C15.7765 1.64942 21.1651 1.64942 26.5536 1.64942C28.1105 1.64942 29.6588 1.64942 31.2157 1.64942C30.9994 1.47933 30.7832 1.30925 30.5669 1.13916C30.5669 3.31625 30.5669 5.49335 30.5669 7.67044C30.5669 12.0246 30.5669 16.3788 30.5669 20.733C30.5669 23.9918 30.5669 27.2507 30.5669 30.5027C30.5669 30.7816 30.5669 31.0538 30.5669 31.3327C30.5669 31.9926 31.8644 31.9926 31.8644 31.3327C31.8644 29.1556 31.8644 26.9785 31.8644 24.8014C31.8644 20.4473 31.8644 16.0931 31.8644 11.7389C31.8644 8.48005 31.8644 5.22121 31.8644 1.96918C31.8644 1.69024 31.8644 1.4181 31.8644 1.13916C31.8644 0.860222 31.5703 0.628906 31.2157 0.628906C27.9721 0.628906 24.72 0.628906 21.4764 0.628906C16.0879 0.628906 10.6993 0.628906 5.31073 0.628906C3.75383 0.628906 2.20559 0.628906 0.648704 0.628906C0.294079 0.628906 0 0.860222 0 1.13916C0 3.31625 0 5.49335 0 7.67044C0 12.0246 0 16.3788 0 20.733C0 23.9918 0 27.2507 0 30.5027C0 30.7816 0 31.0538 0 31.3327C0 31.6117 0.294079 31.843 0.648704 31.843C3.89223 31.843 7.1444 31.843 10.3879 31.843C15.7765 31.843 21.1651 31.843 26.5536 31.843C28.1105 31.843 29.6588 31.843 31.2157 31.843C32.0546 31.843 32.0546 30.8225 31.2157 30.8225Z" fill="#333333"/>
<path d="M15.3496 1.12696C15.3496 3.31769 15.3496 5.50842 15.3496 7.69915C15.3496 12.0806 15.3496 16.4621 15.3496 20.8435C15.3496 24.1228 15.3496 27.402 15.3496 30.6744C15.3496 30.9551 15.3496 31.229 15.3496 31.5097C15.3496 32.1737 16.6525 32.1737 16.6525 31.5097C16.6525 29.3189 16.6525 27.1282 16.6525 24.9375C16.6525 20.556 16.6525 16.1745 16.6525 11.7931C16.6525 8.51383 16.6525 5.23458 16.6525 1.96217C16.6525 1.68148 16.6525 1.40764 16.6525 1.12696C16.6525 0.46289 15.3496 0.46289 15.3496 1.12696Z" fill="#FBD846"/>
<path d="M0.651453 1.88594C3.90878 1.88594 7.1748 1.88594 10.4321 1.88594C15.8436 1.88594 21.2551 1.88594 26.6667 1.88594C28.2302 1.88594 29.785 1.88594 31.3485 1.88594C32.1911 1.88594 32.1911 0.583008 31.3485 0.583008C28.0912 0.583008 24.8252 0.583008 21.5678 0.583008C16.1563 0.583008 10.7448 0.583008 5.33332 0.583008C3.7698 0.583008 2.21497 0.583008 0.651453 0.583008C-0.191109 0.583008 -0.191109 1.88594 0.651453 1.88594Z" fill="#333333"/>
<path d="M31.3485 30.724C28.0912 30.724 24.8252 30.724 21.5679 30.724C16.1564 30.724 10.7448 30.724 5.33333 30.724C3.76981 30.724 2.21498 30.724 0.651466 30.724C0.868621 30.9412 1.08578 31.1584 1.30293 31.3755C1.30293 28.0661 1.30293 24.7653 1.30293 21.4559C1.30293 16.0878 1.30293 10.7197 1.30293 5.35163C1.30293 3.97921 1.30293 2.60679 1.30293 1.22568C1.08578 1.44284 0.868621 1.65999 0.651466 1.87715C3.90879 1.87715 7.17481 1.87715 10.4321 1.87715C15.8436 1.87715 21.2552 1.87715 26.6667 1.87715C28.2302 1.87715 29.785 1.87715 31.3485 1.87715C31.1314 1.65999 30.9142 1.44284 30.6971 1.22568C30.6971 4.53513 30.6971 7.83589 30.6971 11.1453C30.6971 16.5134 30.6971 21.8815 30.6971 27.2496C30.6971 28.622 30.6971 29.9944 30.6971 31.3755C30.6971 32.2181 32 32.2181 32 31.3755C32 28.0661 32 24.7653 32 21.4559C32 16.0878 32 10.7197 32 5.35163C32 3.97921 32 2.60679 32 1.22568C32 0.86955 31.7047 0.574219 31.3485 0.574219C28.0912 0.574219 24.8252 0.574219 21.5679 0.574219C16.1564 0.574219 10.7448 0.574219 5.33333 0.574219C3.76981 0.574219 2.21498 0.574219 0.651466 0.574219C0.295331 0.574219 0 0.86955 0 1.22568C0 4.53513 0 7.83589 0 11.1453C0 16.5134 0 21.8815 0 27.2496C0 28.622 0 29.9944 0 31.3755C0 31.7316 0.295331 32.027 0.651466 32.027C3.90879 32.027 7.17481 32.027 10.4321 32.027C15.8436 32.027 21.2552 32.027 26.6667 32.027C28.2302 32.027 29.785 32.027 31.3485 32.027C32.1911 32.027 32.1911 30.724 31.3485 30.724Z" fill="#333333"/>
<path d="M17.6406 14.9154C17.6406 15.8449 17.6406 16.7656 17.6406 17.695C17.6406 18.5376 18.9436 18.5376 18.9436 17.695C18.9436 16.7656 18.9436 15.8449 18.9436 14.9154C18.9436 14.0816 17.6406 14.0816 17.6406 14.9154Z" fill="#FBD846"/>
<path d="M13.0566 14.9154C13.0566 15.8449 13.0566 16.7656 13.0566 17.695C13.0566 18.5376 14.3596 18.5376 14.3596 17.695C14.3596 16.7656 14.3596 15.8449 14.3596 14.9154C14.3596 14.0816 13.0566 14.0816 13.0566 14.9154Z" fill="#FBD846"/>
</svg>
