<svg width="33" height="33" viewBox="0 0 33 33" fill="none" xmlns="http://www.w3.org/2000/svg">
<path d="M18.5851 16.7546C18.5851 15.7571 17.8983 14.9243 16.9754 14.6845V9.24262C16.9754 8.9459 16.735 8.70605 16.4388 8.70605C16.1426 8.70605 15.9023 8.9459 15.9023 9.24262V14.6845C15.1516 14.8798 14.564 15.4674 14.3687 16.218H10.5366C10.2404 16.218 10 16.4579 10 16.7546C10 17.0513 10.2404 17.2911 10.5366 17.2911H14.3687C14.6086 18.2146 15.4419 18.9009 16.4388 18.9009C17.6225 18.9009 18.5851 17.9382 18.5851 16.7546ZM16.4388 17.8277C15.847 17.8277 15.3657 17.3464 15.3657 16.7546C15.3657 16.1627 15.847 15.6814 16.4388 15.6814C17.0307 15.6814 17.512 16.1627 17.512 16.7546C17.512 17.3464 17.0307 17.8277 16.4388 17.8277Z" fill="black"/>
<path d="M16.4389 6.02279C16.7351 6.02279 16.9755 5.78294 16.9755 5.48622V4.94965C16.9755 4.65293 16.7351 4.41309 16.4389 4.41309C16.1427 4.41309 15.9023 4.65293 15.9023 4.94965V5.48622C15.9023 5.78294 16.1427 6.02279 16.4389 6.02279Z" fill="black"/>
<path d="M15.9023 28.0219V28.5585C15.9023 28.8552 16.1427 29.0951 16.4389 29.0951C16.7351 29.0951 16.9755 28.8552 16.9755 28.5585V28.0219C16.9755 27.7252 16.7351 27.4854 16.4389 27.4854C16.1427 27.4854 15.9023 27.7252 15.9023 28.0219Z" fill="black"/>
<path d="M28.2431 17.2909C28.5392 17.2909 28.7796 17.0511 28.7796 16.7543C28.7796 16.4576 28.5392 16.2178 28.2431 16.2178H27.7065C27.4103 16.2178 27.1699 16.4576 27.1699 16.7543C27.1699 17.0511 27.4103 17.2909 27.7065 17.2909H28.2431Z" fill="black"/>
<path d="M4.63422 16.2178C4.33804 16.2178 4.09766 16.4576 4.09766 16.7543C4.09766 17.0511 4.33804 17.2909 4.63422 17.2909H5.17079C5.46698 17.2909 5.70736 17.0511 5.70736 16.7543C5.70736 16.4576 5.46698 16.2178 5.17079 16.2178H4.63422Z" fill="black"/>
<path d="M24.4058 9.32274C24.5432 9.32274 24.6806 9.27016 24.7852 9.16553L25.1646 8.78617C25.3743 8.57638 25.3743 8.23726 25.1646 8.02747C24.9548 7.81767 24.6156 7.81767 24.4058 8.02747L24.0265 8.40682C23.8167 8.61662 23.8167 8.95573 24.0265 9.16553C24.1311 9.27069 24.2685 9.32274 24.4058 9.32274Z" fill="#FBD846"/>
<path d="M8.09139 24.3429L7.71204 24.7222C7.50224 24.932 7.50224 25.2712 7.71204 25.481C7.81667 25.5856 7.95403 25.6382 8.09139 25.6382C8.22875 25.6382 8.36611 25.5856 8.47074 25.481L8.8501 25.1016C9.0599 24.8918 9.0599 24.5527 8.8501 24.3429C8.6403 24.1331 8.30065 24.1331 8.09139 24.3429Z" fill="#FBD846"/>
<path d="M8.8501 8.40682L8.47074 8.02747C8.26095 7.81767 7.92183 7.81767 7.71204 8.02747C7.50224 8.23726 7.50224 8.57638 7.71204 8.78617L8.09139 9.16553C8.19602 9.27016 8.33338 9.32274 8.47074 9.32274C8.6081 9.32274 8.74547 9.27016 8.8501 9.16553C9.0599 8.95627 9.0599 8.61662 8.8501 8.40682Z" fill="#FBD846"/>
<path d="M16.4388 0.722656C7.56293 0.722656 0.341797 7.94379 0.341797 16.8197C0.341797 25.6956 7.56293 32.9167 16.4388 32.9167C18.3576 32.9167 20.2372 32.5814 22.0267 31.9193C22.3046 31.8168 22.4463 31.5077 22.3438 31.2303C22.2408 30.9513 21.9328 30.8096 21.6543 30.9132C19.9845 31.5303 18.2299 31.8436 16.4388 31.8436C8.15477 31.8436 1.41493 25.1038 1.41493 16.8197C1.41493 8.53563 8.15477 1.79579 16.4388 1.79579C24.7229 1.79579 31.4628 8.53563 31.4628 16.8197C31.4628 18.6118 31.1494 20.3659 30.5318 22.0346C30.4293 22.3131 30.571 22.6216 30.8489 22.7241C31.1269 22.8287 31.4354 22.6855 31.5384 22.4075C32.2005 20.6191 32.5359 18.7395 32.5359 16.8197C32.5359 7.94379 25.3148 0.722656 16.4388 0.722656Z" fill="black"/>
<path d="M27.1706 22.7758V22.185C27.1706 21.8883 26.9302 21.6484 26.634 21.6484C26.3378 21.6484 26.0974 21.8883 26.0974 22.185V22.7779C25.512 22.897 24.9787 23.2077 24.5854 23.6729C24.2576 24.0603 24.1057 24.5561 24.1594 25.0696C24.2141 25.5949 24.4845 26.0821 24.9014 26.4062L26.0974 27.3361V30.2539C25.4745 30.0318 25.0243 29.4416 25.0243 28.7429C25.0243 28.4462 24.7839 28.2064 24.4877 28.2064C24.1916 28.2064 23.9512 28.4462 23.9512 28.7429C23.9512 30.0382 24.8746 31.1221 26.0974 31.3716V31.8432C26.0974 32.14 26.3378 32.3798 26.634 32.3798C26.9302 32.3798 27.1706 32.14 27.1706 31.8432V31.37C27.756 31.2509 28.2893 30.9402 28.6832 30.475C29.011 30.0865 29.1623 29.5907 29.1087 29.0772C29.0534 28.5525 28.7835 28.0658 28.3666 27.7422L27.1706 26.8113V23.8934C27.7935 24.1156 28.2437 24.7058 28.2437 25.4044C28.2437 25.7011 28.4841 25.941 28.7803 25.941C29.0765 25.941 29.3169 25.7011 29.3169 25.4044C29.3169 24.1091 28.3934 23.0253 27.1706 22.7758ZM27.7077 28.5889C27.8949 28.7344 28.0167 28.9538 28.0414 29.1888C28.0645 29.4088 28.0012 29.6197 27.8638 29.7817C27.6771 30.0023 27.4356 30.1568 27.1706 30.2512V28.1704L27.7077 28.5889ZM25.5603 25.5589C25.3725 25.413 25.2513 25.1935 25.2266 24.958C25.2041 24.7385 25.2668 24.5282 25.4042 24.3656C25.5909 24.1451 25.8324 23.9906 26.0974 23.8961V25.9764L25.5603 25.5589Z" fill="#FBD846"/>
</svg>
