<svg width="28" height="34" viewBox="0 0 28 34" fill="none" xmlns="http://www.w3.org/2000/svg">
<path d="M25.4734 17.9326V32.0321C25.4734 32.6962 25.0173 33.2071 24.4243 33.2071H3.30498C2.712 33.2071 2.25586 32.6962 2.25586 32.0321V17.9326" stroke="#333333" stroke-width="1.5"/>
<path fill-rule="evenodd" clip-rule="evenodd" d="M26.3865 16.7063C26.3865 17.3704 25.9304 17.8812 25.3374 17.8812H2.34795C1.75497 17.8812 1.29883 17.3704 1.29883 16.7063V11.4445C1.29883 10.7804 1.75497 10.2695 2.34795 10.2695H25.3374C25.9304 10.2695 26.3865 10.7804 26.3865 11.4445V16.7063Z" stroke="#333333" stroke-width="1.5"/>
<path fill-rule="evenodd" clip-rule="evenodd" d="M20.5944 6.54038C19.5909 7.66425 15.0295 10.9337 13.9804 9.80983C12.9769 8.68595 15.8962 3.52635 16.8997 2.40248C17.9032 1.2786 19.5453 1.2786 20.5944 2.40248C21.5979 3.52635 21.5979 5.4165 20.5944 6.54038Z" stroke="#FBD846" stroke-width="1.5"/>
<path fill-rule="evenodd" clip-rule="evenodd" d="M7.0456 6.54007C8.04911 7.66395 12.6561 10.9845 13.6596 9.86061C14.6631 8.73673 11.7438 3.57713 10.6947 2.45326C9.69121 1.32938 8.04911 1.32938 7.0456 2.45326C6.04209 3.52605 6.04209 5.36511 7.0456 6.54007Z" stroke="#FBD846" stroke-width="1.5"/>
<path d="M10.6953 14.4077C10.6953 14.4077 11.3795 12.0578 14.0251 10.8828V33.156" stroke="#FBD846" stroke-width="1.5"/>
<path d="M13.8418 10.9336C13.8418 10.9336 14.8909 15.0204 18.54 15.6334" stroke="#FBD846" stroke-width="1.5"/>
</svg>
