<svg width="33" height="33" viewBox="0 0 33 33" fill="none" xmlns="http://www.w3.org/2000/svg">
<path d="M0.341797 32.6267H32.5359L0.341797 0.432617V32.6267ZM1.3414 28.1285H4.34019V27.1289H1.3414V24.1301H3.34059V23.1305H1.3414V20.1317H4.34019V19.1321H1.3414V16.1333H3.34059V15.1337H1.3414V12.1349H4.34019V11.1353H1.3414V2.84565L30.1228 31.6271H1.3414V28.1285Z" fill="#333333"/>
<path d="M6.83919 14.427V28.1285H20.5407L6.83919 14.427ZM7.83878 16.84L18.1276 27.1289H7.83878V16.84Z" fill="#333333"/>
<path d="M32.5179 23.8177L31.2824 18.8767L12.8383 0.432617L9.13281 4.13813L27.5769 22.5822L32.5179 23.8177ZM31.1435 22.4433L28.0877 21.6796L13.545 7.13692L15.8371 4.84484L30.3798 19.3875L31.1435 22.4433ZM12.8383 1.84605L15.1304 4.13813L12.8383 6.43021L10.5462 4.13813L12.8383 1.84605Z" fill="#FBD846"/>
</svg>
